<?xml version="1.0" encoding="UTF-8" standalone="no"?>
<!-- Uploaded to: SVG Repo, www.svgrepo.com, Generator: SVG Repo Mixer Tools -->

<svg
   width="800px"
   height="800px"
   viewBox="0 0 24 24"
   fill="none"
   version="1.1"
   id="svg1"
   sodipodi:docname="notes_dark.svg"
   inkscape:version="1.4.3 (0d15f75, 2025-12-25)"
   xmlns:inkscape="http://www.inkscape.org/namespaces/inkscape"
   xmlns:sodipodi="http://sodipodi.sourceforge.net/DTD/sodipodi-0.dtd"
   xmlns="http://www.w3.org/2000/svg"
   xmlns:svg="http://www.w3.org/2000/svg">
  <defs
     id="defs1" />
  <sodipodi:namedview
     id="namedview1"
     pagecolor="#ffffff"
     bordercolor="#000000"
     borderopacity="0.25"
     inkscape:showpageshadow="2"
     inkscape:pageopacity="0.0"
     inkscape:pagecheckerboard="0"
     inkscape:deskcolor="#d1d1d1"
     inkscape:zoom="1.4575"
     inkscape:cx="170.84048"
     inkscape:cy="277.18696"
     inkscape:window-width="2560"
     inkscape:window-height="1406"
     inkscape:window-x="-11"
     inkscape:window-y="-11"
     inkscape:window-maximized="1"
     inkscape:current-layer="svg1" />
  <path
     d="M 8.6157826,1.846031 V 4.102176 M 12,1.846031 V 4.102176 M 15.384217,1.846031 V 4.102176 M 13.128073,8.6144659 H 8.6157826 M 15.384217,13.126755 H 8.6157826 m -0.9024583,9.02458 h 8.5733517 c 1.263553,0 1.895387,0 2.377977,-0.24592 0.424493,-0.216251 0.769683,-0.561442 0.985935,-0.985934 0.245919,-0.482591 0.245919,-1.114424 0.245919,-2.377978 V 6.5839353 c 0,-1.2635539 0,-1.8953422 -0.245919,-2.3779542 C 19.434336,3.7814537 19.089146,3.4363086 18.664653,3.220012 18.182063,2.9741036 17.550229,2.9741036 16.286676,2.9741036 H 7.7133243 c -1.263554,0 -1.8953421,0 -2.377954,0.2459084 C 4.9108428,3.4363086 4.5656978,3.7814537 4.3494011,4.2059811 4.1034926,4.6885931 4.1034926,5.3203701 4.1034926,6.5839353 V 18.541503 c 0,1.263554 0,1.895387 0.2459085,2.377978 0.2162967,0.424492 0.5614417,0.769683 0.9859692,0.985934 0.4826119,0.24592 1.1143889,0.24592 2.377954,0.24592 z"
     stroke="#000000"
     stroke-width="2.25615"
     stroke-linecap="round"
     stroke-linejoin="round"
     id="path1"
     style="stroke:#f8fafc;stroke-opacity:1" />
</svg>
